<svg xmlns="http://www.w3.org/2000/svg" viewBox="0 0 900 120" width="100%" height="120"><rect width="900" height="120" fill="#000000"/><defs><style>.m{font-family:monospace;font-size:14px;fill:#39FF14;}</style></defs><g transform="translate(7.5,-88)"><text x="0" y="0" class="m" opacity="1.00">ス</text><text x="0" y="16" class="m" opacity="0.89">キ</text><text x="0" y="32" class="m" opacity="0.79">U</text><text x="0" y="48" class="m" opacity="0.68">オ</text><text x="0" y="64" class="m" opacity="0.57">Q</text><text x="0" y="80" class="m" opacity="0.47">U</text><text x="0" y="96" class="m" opacity="0.36">&</text><text x="0" y="112" class="m" opacity="0.26">H</text><animateTransform attributeName="transform" type="translate" from="7.5,-88" to="7.5,270" dur="4.42s" begin="0.1s" repeatCount="indefinite" additive="sum"/></g><g transform="translate(22.5,-127)"><text x="0" y="0" class="m" opacity="1.00">シ</text><text x="0" y="16" class="m" opacity="0.86">ス</text><text x="0" y="32" class="m" opacity="0.72">F</text><text x="0" y="48" class="m" opacity="0.57">L</text><text x="0" y="64" class="m" opacity="0.43">1</text><text x="0" y="80" class="m" opacity="0.29">I</text><animateTransform attributeName="transform" type="translate" from="22.5,-127" to="22.5,270" dur="2.76s" begin="1.69s" repeatCount="indefinite" additive="sum"/></g><g transform="translate(37.5,-43)"><text x="0" y="0" class="m" opacity="1.00">ス</text><text x="0" y="16" class="m" opacity="0.92">B</text><text x="0" y="32" class="m" opacity="0.83">K</text><text x="0" y="48" class="m" opacity="0.74">タ</text><text x="0" y="64" class="m" opacity="0.66">Y</text><text x="0" y="80" class="m" opacity="0.57">@</text><text x="0" y="96" class="m" opacity="0.49">0</text><text x="0" y="112" class="m" opacity="0.41">V</text><text x="0" y="128" class="m" opacity="0.32">Y</text><text x="0" y="144" class="m" opacity="0.23">ケ</text><animateTransform attributeName="transform" type="translate" from="37.5,-43" to="37.5,270" dur="3.1s" begin="2.6s" repeatCount="indefinite" additive="sum"/></g><g transform="translate(52.5,-95)"><text x="0" y="0" class="m" opacity="1.00">V</text><text x="0" y="16" class="m" opacity="0.88">ト</text><text x="0" y="32" class="m" opacity="0.76">オ</text><text x="0" y="48" class="m" opacity="0.64">エ</text><text x="0" y="64" class="m" opacity="0.51">ヌ</text><text x="0" y="80" class="m" opacity="0.39">オ</text><text x="0" y="96" class="m" opacity="0.27">ナ</text><animateTransform attributeName="transform" type="translate" from="52.5,-95" to="52.5,270" dur="4.59s" begin="1.36s" repeatCount="indefinite" additive="sum"/></g><g transform="translate(67.5,-139)"><text x="0" y="0" class="m" opacity="1.00">T</text><text x="0" y="16" class="m" opacity="0.93">C</text><text x="0" y="32" class="m" opacity="0.86">H</text><text x="0" y="48" class="m" opacity="0.79">カ</text><text x="0" y="64" class="m" opacity="0.72">ヌ</text><text x="0" y="80" class="m" opacity="0.65">エ</text><text x="0" y="96" class="m" opacity="0.57">I</text><text x="0" y="112" class="m" opacity="0.50">チ</text><text x="0" y="128" class="m" opacity="0.43">$</text><text x="0" y="144" class="m" opacity="0.36">N</text><text x="0" y="160" class="m" opacity="0.29">M</text><text x="0" y="176" class="m" opacity="0.22">%</text><animateTransform attributeName="transform" type="translate" from="67.5,-139" to="67.5,270" dur="5.04s" begin="2.41s" repeatCount="indefinite" additive="sum"/></g><g transform="translate(82.5,-133)"><text x="0" y="0" class="m" opacity="1.00">ア</text><text x="0" y="16" class="m" opacity="0.92">P</text><text x="0" y="32" class="m" opacity="0.85">ス</text><text x="0" y="48" class="m" opacity="0.77">W</text><text x="0" y="64" class="m" opacity="0.69">チ</text><text x="0" y="80" class="m" opacity="0.61">エ</text><text x="0" y="96" class="m" opacity="0.54">#</text><text x="0" y="112" class="m" opacity="0.46">ス</text><text x="0" y="128" class="m" opacity="0.38">@</text><text x="0" y="144" class="m" opacity="0.30">オ</text><text x="0" y="160" class="m" opacity="0.23">ヌ</text><animateTransform attributeName="transform" type="translate" from="82.5,-133" to="82.5,270" dur="5.09s" begin="2.31s" repeatCount="indefinite" additive="sum"/></g><g transform="translate(97.5,-109)"><text x="0" y="0" class="m" opacity="1.00">ニ</text><text x="0" y="16" class="m" opacity="0.89">ナ</text><text x="0" y="32" class="m" opacity="0.79">シ</text><text x="0" y="48" class="m" opacity="0.68">P</text><text x="0" y="64" class="m" opacity="0.57">タ</text><text x="0" y="80" class="m" opacity="0.47">R</text><text x="0" y="96" class="m" opacity="0.36">Q</text><text x="0" y="112" class="m" opacity="0.26">O</text><animateTransform attributeName="transform" type="translate" from="97.5,-109" to="97.5,270" dur="3.33s" begin="2.54s" repeatCount="indefinite" additive="sum"/></g><g transform="translate(112.5,-88)"><text x="0" y="0" class="m" opacity="1.00">ケ</text><text x="0" y="16" class="m" opacity="0.92">C</text><text x="0" y="32" class="m" opacity="0.83">ヌ</text><text x="0" y="48" class="m" opacity="0.74">タ</text><text x="0" y="64" class="m" opacity="0.66">N</text><text x="0" y="80" class="m" opacity="0.57">R</text><text x="0" y="96" class="m" opacity="0.49">I</text><text x="0" y="112" class="m" opacity="0.41">ス</text><text x="0" y="128" class="m" opacity="0.32">Q</text><text x="0" y="144" class="m" opacity="0.23">テ</text><animateTransform attributeName="transform" type="translate" from="112.5,-88" to="112.5,270" dur="2.71s" begin="2.54s" repeatCount="indefinite" additive="sum"/></g><g transform="translate(127.5,-142)"><text x="0" y="0" class="m" opacity="1.00">Y</text><text x="0" y="16" class="m" opacity="0.88">テ</text><text x="0" y="32" class="m" opacity="0.76">ネ</text><text x="0" y="48" class="m" opacity="0.64">タ</text><text x="0" y="64" class="m" opacity="0.51">ウ</text><text x="0" y="80" class="m" opacity="0.39">シ</text><text x="0" y="96" class="m" opacity="0.27">J</text><animateTransform attributeName="transform" type="translate" from="127.5,-142" to="127.5,270" dur="5.03s" begin="3.1s" repeatCount="indefinite" additive="sum"/></g><g transform="translate(142.5,-23)"><text x="0" y="0" class="m" opacity="1.00">ネ</text><text x="0" y="16" class="m" opacity="0.92">%</text><text x="0" y="32" class="m" opacity="0.85">O</text><text x="0" y="48" class="m" opacity="0.77">C</text><text x="0" y="64" class="m" opacity="0.69">ク</text><text x="0" y="80" class="m" opacity="0.61">ソ</text><text x="0" y="96" class="m" opacity="0.54">キ</text><text x="0" y="112" class="m" opacity="0.46">セ</text><text x="0" y="128" class="m" opacity="0.38">U</text><text x="0" y="144" class="m" opacity="0.30">I</text><text x="0" y="160" class="m" opacity="0.23">H</text><animateTransform attributeName="transform" type="translate" from="142.5,-23" to="142.5,270" dur="5.13s" begin="1.26s" repeatCount="indefinite" additive="sum"/></g><g transform="translate(157.5,-48)"><text x="0" y="0" class="m" opacity="1.00">ニ</text><text x="0" y="16" class="m" opacity="0.92">ス</text><text x="0" y="32" class="m" opacity="0.83">キ</text><text x="0" y="48" class="m" opacity="0.74">F</text><text x="0" y="64" class="m" opacity="0.66">E</text><text x="0" y="80" class="m" opacity="0.57">エ</text><text x="0" y="96" class="m" opacity="0.49">V</text><text x="0" y="112" class="m" opacity="0.41">イ</text><text x="0" y="128" class="m" opacity="0.32">@</text><text x="0" y="144" class="m" opacity="0.23">カ</text><animateTransform attributeName="transform" type="translate" from="157.5,-48" to="157.5,270" dur="3.29s" begin="2.34s" repeatCount="indefinite" additive="sum"/></g><g transform="translate(172.5,-42)"><text x="0" y="0" class="m" opacity="1.00">L</text><text x="0" y="16" class="m" opacity="0.92">ウ</text><text x="0" y="32" class="m" opacity="0.85">ヌ</text><text x="0" y="48" class="m" opacity="0.77">ヌ</text><text x="0" y="64" class="m" opacity="0.69">L</text><text x="0" y="80" class="m" opacity="0.61">C</text><text x="0" y="96" class="m" opacity="0.54">G</text><text x="0" y="112" class="m" opacity="0.46">ソ</text><text x="0" y="128" class="m" opacity="0.38">I</text><text x="0" y="144" class="m" opacity="0.30">@</text><text x="0" y="160" class="m" opacity="0.23">0</text><animateTransform attributeName="transform" type="translate" from="172.5,-42" to="172.5,270" dur="2.96s" begin="0.64s" repeatCount="indefinite" additive="sum"/></g><g transform="translate(187.5,-82)"><text x="0" y="0" class="m" opacity="1.00">W</text><text x="0" y="16" class="m" opacity="0.92">O</text><text x="0" y="32" class="m" opacity="0.83">ト</text><text x="0" y="48" class="m" opacity="0.74">カ</text><text x="0" y="64" class="m" opacity="0.66">チ</text><text x="0" y="80" class="m" opacity="0.57">A</text><text x="0" y="96" class="m" opacity="0.49">ケ</text><text x="0" y="112" class="m" opacity="0.41">C</text><text x="0" y="128" class="m" opacity="0.32">0</text><text x="0" y="144" class="m" opacity="0.23">T</text><animateTransform attributeName="transform" type="translate" from="187.5,-82" to="187.5,270" dur="4.54s" begin="0.46s" repeatCount="indefinite" additive="sum"/></g><g transform="translate(202.5,-105)"><text x="0" y="0" class="m" opacity="1.00">F</text><text x="0" y="16" class="m" opacity="0.92">オ</text><text x="0" y="32" class="m" opacity="0.83">@</text><text x="0" y="48" class="m" opacity="0.74">N</text><text x="0" y="64" class="m" opacity="0.66">ツ</text><text x="0" y="80" class="m" opacity="0.57">$</text><text x="0" y="96" class="m" opacity="0.49">N</text><text x="0" y="112" class="m" opacity="0.41">F</text><text x="0" y="128" class="m" opacity="0.32">L</text><text x="0" y="144" class="m" opacity="0.23">サ</text><animateTransform attributeName="transform" type="translate" from="202.5,-105" to="202.5,270" dur="5.13s" begin="1.05s" repeatCount="indefinite" additive="sum"/></g><g transform="translate(217.5,-150)"><text x="0" y="0" class="m" opacity="1.00">L</text><text x="0" y="16" class="m" opacity="0.92">テ</text><text x="0" y="32" class="m" opacity="0.83">E</text><text x="0" y="48" class="m" opacity="0.74">1</text><text x="0" y="64" class="m" opacity="0.66">カ</text><text x="0" y="80" class="m" opacity="0.57">ニ</text><text x="0" y="96" class="m" opacity="0.49">%</text><text x="0" y="112" class="m" opacity="0.41">$</text><text x="0" y="128" class="m" opacity="0.32">Y</text><text x="0" y="144" class="m" opacity="0.23">ツ</text><animateTransform attributeName="transform" type="translate" from="217.5,-150" to="217.5,270" dur="2.96s" begin="3.05s" repeatCount="indefinite" additive="sum"/></g><g transform="translate(232.5,-130)"><text x="0" y="0" class="m" opacity="1.00">エ</text><text x="0" y="16" class="m" opacity="0.92">T</text><text x="0" y="32" class="m" opacity="0.83">E</text><text x="0" y="48" class="m" opacity="0.74">Z</text><text x="0" y="64" class="m" opacity="0.66">ウ</text><text x="0" y="80" class="m" opacity="0.57">V</text><text x="0" y="96" class="m" opacity="0.49">H</text><text x="0" y="112" class="m" opacity="0.41">W</text><text x="0" y="128" class="m" opacity="0.32">キ</text><text x="0" y="144" class="m" opacity="0.23">キ</text><animateTransform attributeName="transform" type="translate" from="232.5,-130" to="232.5,270" dur="3.22s" begin="0.96s" repeatCount="indefinite" additive="sum"/></g><g transform="translate(247.5,-83)"><text x="0" y="0" class="m" opacity="1.00">G</text><text x="0" y="16" class="m" opacity="0.88">@</text><text x="0" y="32" class="m" opacity="0.76">L</text><text x="0" y="48" class="m" opacity="0.64">A</text><text x="0" y="64" class="m" opacity="0.51">シ</text><text x="0" y="80" class="m" opacity="0.39">H</text><text x="0" y="96" class="m" opacity="0.27">V</text><animateTransform attributeName="transform" type="translate" from="247.5,-83" to="247.5,270" dur="4.48s" begin="3.79s" repeatCount="indefinite" additive="sum"/></g><g transform="translate(262.5,-48)"><text x="0" y="0" class="m" opacity="1.00">P</text><text x="0" y="16" class="m" opacity="0.89">O</text><text x="0" y="32" class="m" opacity="0.79">ニ</text><text x="0" y="48" class="m" opacity="0.68">B</text><text x="0" y="64" class="m" opacity="0.57">&</text><text x="0" y="80" class="m" opacity="0.47">G</text><text x="0" y="96" class="m" opacity="0.36">B</text><text x="0" y="112" class="m" opacity="0.26">カ</text><animateTransform attributeName="transform" type="translate" from="262.5,-48" to="262.5,270" dur="4.69s" begin="0.8s" repeatCount="indefinite" additive="sum"/></g><g transform="translate(277.5,-92)"><text x="0" y="0" class="m" opacity="1.00">K</text><text x="0" y="16" class="m" opacity="0.86">ス</text><text x="0" y="32" class="m" opacity="0.72">0</text><text x="0" y="48" class="m" opacity="0.57">ウ</text><text x="0" y="64" class="m" opacity="0.43">S</text><text x="0" y="80" class="m" opacity="0.29">N</text><animateTransform attributeName="transform" type="translate" from="277.5,-92" to="277.5,270" dur="3.24s" begin="0.26s" repeatCount="indefinite" additive="sum"/></g><g transform="translate(292.5,-66)"><text x="0" y="0" class="m" opacity="1.00">ウ</text><text x="0" y="16" class="m" opacity="0.86">F</text><text x="0" y="32" class="m" opacity="0.72">セ</text><text x="0" y="48" class="m" opacity="0.57">タ</text><text x="0" y="64" class="m" opacity="0.43">P</text><text x="0" y="80" class="m" opacity="0.29">E</text><animateTransform attributeName="transform" type="translate" from="292.5,-66" to="292.5,270" dur="2.68s" begin="0.27s" repeatCount="indefinite" additive="sum"/></g><g transform="translate(307.5,-29)"><text x="0" y="0" class="m" opacity="1.00">セ</text><text x="0" y="16" class="m" opacity="0.92">X</text><text x="0" y="32" class="m" opacity="0.83">D</text><text x="0" y="48" class="m" opacity="0.74">Y</text><text x="0" y="64" class="m" opacity="0.66">ノ</text><text x="0" y="80" class="m" opacity="0.57">サ</text><text x="0" y="96" class="m" opacity="0.49">オ</text><text x="0" y="112" class="m" opacity="0.41">オ</text><text x="0" y="128" class="m" opacity="0.32">P</text><text x="0" y="144" class="m" opacity="0.23">A</text><animateTransform attributeName="transform" type="translate" from="307.5,-29" to="307.5,270" dur="3.14s" begin="0.53s" repeatCount="indefinite" additive="sum"/></g><g transform="translate(322.5,-137)"><text x="0" y="0" class="m" opacity="1.00">Q</text><text x="0" y="16" class="m" opacity="0.93">O</text><text x="0" y="32" class="m" opacity="0.86">O</text><text x="0" y="48" class="m" opacity="0.79">オ</text><text x="0" y="64" class="m" opacity="0.72">イ</text><text x="0" y="80" class="m" opacity="0.65">ネ</text><text x="0" y="96" class="m" opacity="0.57">T</text><text x="0" y="112" class="m" opacity="0.50">ト</text><text x="0" y="128" class="m" opacity="0.43">Y</text><text x="0" y="144" class="m" opacity="0.36">@</text><text x="0" y="160" class="m" opacity="0.29">オ</text><text x="0" y="176" class="m" opacity="0.22">セ</text><animateTransform attributeName="transform" type="translate" from="322.5,-137" to="322.5,270" dur="3.56s" begin="1.64s" repeatCount="indefinite" additive="sum"/></g><g transform="translate(337.5,-42)"><text x="0" y="0" class="m" opacity="1.00">コ</text><text x="0" y="16" class="m" opacity="0.88">タ</text><text x="0" y="32" class="m" opacity="0.76">C</text><text x="0" y="48" class="m" opacity="0.64">セ</text><text x="0" y="64" class="m" opacity="0.51">@</text><text x="0" y="80" class="m" opacity="0.39">ウ</text><text x="0" y="96" class="m" opacity="0.27">B</text><animateTransform attributeName="transform" type="translate" from="337.5,-42" to="337.5,270" dur="3.07s" begin="2.15s" repeatCount="indefinite" additive="sum"/></g><g transform="translate(352.5,-138)"><text x="0" y="0" class="m" opacity="1.00">O</text><text x="0" y="16" class="m" opacity="0.86">H</text><text x="0" y="32" class="m" opacity="0.72">$</text><text x="0" y="48" class="m" opacity="0.57">0</text><text x="0" y="64" class="m" opacity="0.43">エ</text><text x="0" y="80" class="m" opacity="0.29">V</text><animateTransform attributeName="transform" type="translate" from="352.5,-138" to="352.5,270" dur="4.92s" begin="3.42s" repeatCount="indefinite" additive="sum"/></g><g transform="translate(367.5,-27)"><text x="0" y="0" class="m" opacity="1.00">シ</text><text x="0" y="16" class="m" opacity="0.91">@</text><text x="0" y="32" class="m" opacity="0.81">ネ</text><text x="0" y="48" class="m" opacity="0.72">&</text><text x="0" y="64" class="m" opacity="0.62">イ</text><text x="0" y="80" class="m" opacity="0.53">ケ</text><text x="0" y="96" class="m" opacity="0.43">ヌ</text><text x="0" y="112" class="m" opacity="0.34">0</text><text x="0" y="128" class="m" opacity="0.24">ヌ</text><animateTransform attributeName="transform" type="translate" from="367.5,-27" to="367.5,270" dur="5.05s" begin="0.67s" repeatCount="indefinite" additive="sum"/></g><g transform="translate(382.5,-77)"><text x="0" y="0" class="m" opacity="1.00">A</text><text x="0" y="16" class="m" opacity="0.91">R</text><text x="0" y="32" class="m" opacity="0.81">T</text><text x="0" y="48" class="m" opacity="0.72">X</text><text x="0" y="64" class="m" opacity="0.62">I</text><text x="0" y="80" class="m" opacity="0.53">P</text><text x="0" y="96" class="m" opacity="0.43">S</text><text x="0" y="112" class="m" opacity="0.34">E</text><text x="0" y="128" class="m" opacity="0.24">ク</text><animateTransform attributeName="transform" type="translate" from="382.5,-77" to="382.5,270" dur="3.3s" begin="3.14s" repeatCount="indefinite" additive="sum"/></g><g transform="translate(397.5,-135)"><text x="0" y="0" class="m" opacity="1.00">U</text><text x="0" y="16" class="m" opacity="0.86">テ</text><text x="0" y="32" class="m" opacity="0.72">イ</text><text x="0" y="48" class="m" opacity="0.57">イ</text><text x="0" y="64" class="m" opacity="0.43">K</text><text x="0" y="80" class="m" opacity="0.29">D</text><animateTransform attributeName="transform" type="translate" from="397.5,-135" to="397.5,270" dur="3.07s" begin="0.87s" repeatCount="indefinite" additive="sum"/></g><g transform="translate(412.5,-136)"><text x="0" y="0" class="m" opacity="1.00">F</text><text x="0" y="16" class="m" opacity="0.88">エ</text><text x="0" y="32" class="m" opacity="0.76">#</text><text x="0" y="48" class="m" opacity="0.64">コ</text><text x="0" y="64" class="m" opacity="0.51">ウ</text><text x="0" y="80" class="m" opacity="0.39">L</text><text x="0" y="96" class="m" opacity="0.27">ウ</text><animateTransform attributeName="transform" type="translate" from="412.5,-136" to="412.5,270" dur="4.01s" begin="3.41s" repeatCount="indefinite" additive="sum"/></g><g transform="translate(427.5,-87)"><text x="0" y="0" class="m" opacity="1.00">K</text><text x="0" y="16" class="m" opacity="0.86">L</text><text x="0" y="32" class="m" opacity="0.72">ア</text><text x="0" y="48" class="m" opacity="0.57">M</text><text x="0" y="64" class="m" opacity="0.43">エ</text><text x="0" y="80" class="m" opacity="0.29">ノ</text><animateTransform attributeName="transform" type="translate" from="427.5,-87" to="427.5,270" dur="4.53s" begin="0.94s" repeatCount="indefinite" additive="sum"/></g><g transform="translate(442.5,-84)"><text x="0" y="0" class="m" opacity="1.00">シ</text><text x="0" y="16" class="m" opacity="0.89">P</text><text x="0" y="32" class="m" opacity="0.79">S</text><text x="0" y="48" class="m" opacity="0.68">テ</text><text x="0" y="64" class="m" opacity="0.57">セ</text><text x="0" y="80" class="m" opacity="0.47">ソ</text><text x="0" y="96" class="m" opacity="0.36">ネ</text><text x="0" y="112" class="m" opacity="0.26">キ</text><animateTransform attributeName="transform" type="translate" from="442.5,-84" to="442.5,270" dur="4.47s" begin="2.26s" repeatCount="indefinite" additive="sum"/></g><g transform="translate(457.5,-132)"><text x="0" y="0" class="m" opacity="1.00">0</text><text x="0" y="16" class="m" opacity="0.89">C</text><text x="0" y="32" class="m" opacity="0.79">M</text><text x="0" y="48" class="m" opacity="0.68">J</text><text x="0" y="64" class="m" opacity="0.57">オ</text><text x="0" y="80" class="m" opacity="0.47">ウ</text><text x="0" y="96" class="m" opacity="0.36">H</text><text x="0" y="112" class="m" opacity="0.26">シ</text><animateTransform attributeName="transform" type="translate" from="457.5,-132" to="457.5,270" dur="4.52s" begin="1.2s" repeatCount="indefinite" additive="sum"/></g><g transform="translate(472.5,-133)"><text x="0" y="0" class="m" opacity="1.00">%</text><text x="0" y="16" class="m" opacity="0.89">セ</text><text x="0" y="32" class="m" opacity="0.79">ニ</text><text x="0" y="48" class="m" opacity="0.68">チ</text><text x="0" y="64" class="m" opacity="0.57">ケ</text><text x="0" y="80" class="m" opacity="0.47">B</text><text x="0" y="96" class="m" opacity="0.36">$</text><text x="0" y="112" class="m" opacity="0.26">H</text><animateTransform attributeName="transform" type="translate" from="472.5,-133" to="472.5,270" dur="4.02s" begin="0.53s" repeatCount="indefinite" additive="sum"/></g><g transform="translate(487.5,-148)"><text x="0" y="0" class="m" opacity="1.00">P</text><text x="0" y="16" class="m" opacity="0.93">Z</text><text x="0" y="32" class="m" opacity="0.86">I</text><text x="0" y="48" class="m" opacity="0.79">ツ</text><text x="0" y="64" class="m" opacity="0.72">P</text><text x="0" y="80" class="m" opacity="0.65">オ</text><text x="0" y="96" class="m" opacity="0.57">%</text><text x="0" y="112" class="m" opacity="0.50">キ</text><text x="0" y="128" class="m" opacity="0.43">ソ</text><text x="0" y="144" class="m" opacity="0.36">カ</text><text x="0" y="160" class="m" opacity="0.29">%</text><text x="0" y="176" class="m" opacity="0.22">オ</text><animateTransform attributeName="transform" type="translate" from="487.5,-148" to="487.5,270" dur="4.61s" begin="2.45s" repeatCount="indefinite" additive="sum"/></g><g transform="translate(502.5,-97)"><text x="0" y="0" class="m" opacity="1.00">S</text><text x="0" y="16" class="m" opacity="0.89">ト</text><text x="0" y="32" class="m" opacity="0.79">シ</text><text x="0" y="48" class="m" opacity="0.68">Q</text><text x="0" y="64" class="m" opacity="0.57">N</text><text x="0" y="80" class="m" opacity="0.47">#</text><text x="0" y="96" class="m" opacity="0.36">ソ</text><text x="0" y="112" class="m" opacity="0.26">F</text><animateTransform attributeName="transform" type="translate" from="502.5,-97" to="502.5,270" dur="4.73s" begin="0.62s" repeatCount="indefinite" additive="sum"/></g><g transform="translate(517.5,-137)"><text x="0" y="0" class="m" opacity="1.00">エ</text><text x="0" y="16" class="m" opacity="0.93">N</text><text x="0" y="32" class="m" opacity="0.86">A</text><text x="0" y="48" class="m" opacity="0.79">$</text><text x="0" y="64" class="m" opacity="0.72">タ</text><text x="0" y="80" class="m" opacity="0.65">ア</text><text x="0" y="96" class="m" opacity="0.57">0</text><text x="0" y="112" class="m" opacity="0.50">ト</text><text x="0" y="128" class="m" opacity="0.43">W</text><text x="0" y="144" class="m" opacity="0.36">キ</text><text x="0" y="160" class="m" opacity="0.29">N</text><text x="0" y="176" class="m" opacity="0.22">ソ</text><animateTransform attributeName="transform" type="translate" from="517.5,-137" to="517.5,270" dur="3.97s" begin="3.62s" repeatCount="indefinite" additive="sum"/></g><g transform="translate(532.5,-41)"><text x="0" y="0" class="m" opacity="1.00">I</text><text x="0" y="16" class="m" opacity="0.92">0</text><text x="0" y="32" class="m" opacity="0.85">カ</text><text x="0" y="48" class="m" opacity="0.77">ウ</text><text x="0" y="64" class="m" opacity="0.69">%</text><text x="0" y="80" class="m" opacity="0.61">R</text><text x="0" y="96" class="m" opacity="0.54">&</text><text x="0" y="112" class="m" opacity="0.46">ク</text><text x="0" y="128" class="m" opacity="0.38">H</text><text x="0" y="144" class="m" opacity="0.30">ア</text><text x="0" y="160" class="m" opacity="0.23">$</text><animateTransform attributeName="transform" type="translate" from="532.5,-41" to="532.5,270" dur="2.98s" begin="1.77s" repeatCount="indefinite" additive="sum"/></g><g transform="translate(547.5,-118)"><text x="0" y="0" class="m" opacity="1.00">ア</text><text x="0" y="16" class="m" opacity="0.91">ツ</text><text x="0" y="32" class="m" opacity="0.81">ニ</text><text x="0" y="48" class="m" opacity="0.72">&</text><text x="0" y="64" class="m" opacity="0.62">X</text><text x="0" y="80" class="m" opacity="0.53">@</text><text x="0" y="96" class="m" opacity="0.43">ア</text><text x="0" y="112" class="m" opacity="0.34">&</text><text x="0" y="128" class="m" opacity="0.24">ナ</text><animateTransform attributeName="transform" type="translate" from="547.5,-118" to="547.5,270" dur="3.61s" begin="2.21s" repeatCount="indefinite" additive="sum"/></g><g transform="translate(562.5,-60)"><text x="0" y="0" class="m" opacity="1.00">W</text><text x="0" y="16" class="m" opacity="0.86">I</text><text x="0" y="32" class="m" opacity="0.72">%</text><text x="0" y="48" class="m" opacity="0.57">@</text><text x="0" y="64" class="m" opacity="0.43">ノ</text><text x="0" y="80" class="m" opacity="0.29">M</text><animateTransform attributeName="transform" type="translate" from="562.5,-60" to="562.5,270" dur="3.13s" begin="1.0s" repeatCount="indefinite" additive="sum"/></g><g transform="translate(577.5,-109)"><text x="0" y="0" class="m" opacity="1.00">Y</text><text x="0" y="16" class="m" opacity="0.88">Y</text><text x="0" y="32" class="m" opacity="0.76">コ</text><text x="0" y="48" class="m" opacity="0.64">%</text><text x="0" y="64" class="m" opacity="0.51">ノ</text><text x="0" y="80" class="m" opacity="0.39">1</text><text x="0" y="96" class="m" opacity="0.27">コ</text><animateTransform attributeName="transform" type="translate" from="577.5,-109" to="577.5,270" dur="4.75s" begin="3.7s" repeatCount="indefinite" additive="sum"/></g><g transform="translate(592.5,-87)"><text x="0" y="0" class="m" opacity="1.00">タ</text><text x="0" y="16" class="m" opacity="0.91">ケ</text><text x="0" y="32" class="m" opacity="0.81">X</text><text x="0" y="48" class="m" opacity="0.72">R</text><text x="0" y="64" class="m" opacity="0.62">オ</text><text x="0" y="80" class="m" opacity="0.53">ヌ</text><text x="0" y="96" class="m" opacity="0.43">@</text><text x="0" y="112" class="m" opacity="0.34">ア</text><text x="0" y="128" class="m" opacity="0.24">#</text><animateTransform attributeName="transform" type="translate" from="592.5,-87" to="592.5,270" dur="4.71s" begin="1.33s" repeatCount="indefinite" additive="sum"/></g><g transform="translate(607.5,-61)"><text x="0" y="0" class="m" opacity="1.00">ツ</text><text x="0" y="16" class="m" opacity="0.91">Z</text><text x="0" y="32" class="m" opacity="0.81">X</text><text x="0" y="48" class="m" opacity="0.72">@</text><text x="0" y="64" class="m" opacity="0.62">ス</text><text x="0" y="80" class="m" opacity="0.53">ス</text><text x="0" y="96" class="m" opacity="0.43">1</text><text x="0" y="112" class="m" opacity="0.34">P</text><text x="0" y="128" class="m" opacity="0.24">サ</text><animateTransform attributeName="transform" type="translate" from="607.5,-61" to="607.5,270" dur="3.91s" begin="0.8s" repeatCount="indefinite" additive="sum"/></g><g transform="translate(622.5,-79)"><text x="0" y="0" class="m" opacity="1.00">ナ</text><text x="0" y="16" class="m" opacity="0.86">O</text><text x="0" y="32" class="m" opacity="0.72">F</text><text x="0" y="48" class="m" opacity="0.57">ネ</text><text x="0" y="64" class="m" opacity="0.43">Q</text><text x="0" y="80" class="m" opacity="0.29">$</text><animateTransform attributeName="transform" type="translate" from="622.5,-79" to="622.5,270" dur="3.7s" begin="1.11s" repeatCount="indefinite" additive="sum"/></g><g transform="translate(637.5,-84)"><text x="0" y="0" class="m" opacity="1.00">コ</text><text x="0" y="16" class="m" opacity="0.86">K</text><text x="0" y="32" class="m" opacity="0.72">ソ</text><text x="0" y="48" class="m" opacity="0.57">ア</text><text x="0" y="64" class="m" opacity="0.43">オ</text><text x="0" y="80" class="m" opacity="0.29">L</text><animateTransform attributeName="transform" type="translate" from="637.5,-84" to="637.5,270" dur="4.11s" begin="3.76s" repeatCount="indefinite" additive="sum"/></g><g transform="translate(652.5,-39)"><text x="0" y="0" class="m" opacity="1.00">L</text><text x="0" y="16" class="m" opacity="0.89">F</text><text x="0" y="32" class="m" opacity="0.79">カ</text><text x="0" y="48" class="m" opacity="0.68">ヌ</text><text x="0" y="64" class="m" opacity="0.57">&</text><text x="0" y="80" class="m" opacity="0.47">J</text><text x="0" y="96" class="m" opacity="0.36">サ</text><text x="0" y="112" class="m" opacity="0.26">ソ</text><animateTransform attributeName="transform" type="translate" from="652.5,-39" to="652.5,270" dur="3.8s" begin="2.91s" repeatCount="indefinite" additive="sum"/></g><g transform="translate(667.5,-100)"><text x="0" y="0" class="m" opacity="1.00">ニ</text><text x="0" y="16" class="m" opacity="0.92">A</text><text x="0" y="32" class="m" opacity="0.83">ウ</text><text x="0" y="48" class="m" opacity="0.74">P</text><text x="0" y="64" class="m" opacity="0.66">ト</text><text x="0" y="80" class="m" opacity="0.57">M</text><text x="0" y="96" class="m" opacity="0.49">テ</text><text x="0" y="112" class="m" opacity="0.41">P</text><text x="0" y="128" class="m" opacity="0.32">#</text><text x="0" y="144" class="m" opacity="0.23">カ</text><animateTransform attributeName="transform" type="translate" from="667.5,-100" to="667.5,270" dur="2.63s" begin="1.74s" repeatCount="indefinite" additive="sum"/></g><g transform="translate(682.5,-46)"><text x="0" y="0" class="m" opacity="1.00">テ</text><text x="0" y="16" class="m" opacity="0.89">ネ</text><text x="0" y="32" class="m" opacity="0.79">R</text><text x="0" y="48" class="m" opacity="0.68">チ</text><text x="0" y="64" class="m" opacity="0.57">I</text><text x="0" y="80" class="m" opacity="0.47">キ</text><text x="0" y="96" class="m" opacity="0.36">サ</text><text x="0" y="112" class="m" opacity="0.26">ノ</text><animateTransform attributeName="transform" type="translate" from="682.5,-46" to="682.5,270" dur="4.66s" begin="1.2s" repeatCount="indefinite" additive="sum"/></g><g transform="translate(697.5,-106)"><text x="0" y="0" class="m" opacity="1.00">M</text><text x="0" y="16" class="m" opacity="0.92">J</text><text x="0" y="32" class="m" opacity="0.85">ツ</text><text x="0" y="48" class="m" opacity="0.77">ネ</text><text x="0" y="64" class="m" opacity="0.69">I</text><text x="0" y="80" class="m" opacity="0.61">$</text><text x="0" y="96" class="m" opacity="0.54">0</text><text x="0" y="112" class="m" opacity="0.46">ツ</text><text x="0" y="128" class="m" opacity="0.38">チ</text><text x="0" y="144" class="m" opacity="0.30">シ</text><text x="0" y="160" class="m" opacity="0.23">A</text><animateTransform attributeName="transform" type="translate" from="697.5,-106" to="697.5,270" dur="4.49s" begin="1.52s" repeatCount="indefinite" additive="sum"/></g><g transform="translate(712.5,-31)"><text x="0" y="0" class="m" opacity="1.00">B</text><text x="0" y="16" class="m" opacity="0.89">B</text><text x="0" y="32" class="m" opacity="0.79">Q</text><text x="0" y="48" class="m" opacity="0.68">シ</text><text x="0" y="64" class="m" opacity="0.57">F</text><text x="0" y="80" class="m" opacity="0.47">D</text><text x="0" y="96" class="m" opacity="0.36">X</text><text x="0" y="112" class="m" opacity="0.26">&</text><animateTransform attributeName="transform" type="translate" from="712.5,-31" to="712.5,270" dur="4.86s" begin="2.43s" repeatCount="indefinite" additive="sum"/></g><g transform="translate(727.5,-129)"><text x="0" y="0" class="m" opacity="1.00">チ</text><text x="0" y="16" class="m" opacity="0.92">F</text><text x="0" y="32" class="m" opacity="0.85">P</text><text x="0" y="48" class="m" opacity="0.77">N</text><text x="0" y="64" class="m" opacity="0.69">M</text><text x="0" y="80" class="m" opacity="0.61">ト</text><text x="0" y="96" class="m" opacity="0.54">エ</text><text x="0" y="112" class="m" opacity="0.46">Z</text><text x="0" y="128" class="m" opacity="0.38">V</text><text x="0" y="144" class="m" opacity="0.30">セ</text><text x="0" y="160" class="m" opacity="0.23">Q</text><animateTransform attributeName="transform" type="translate" from="727.5,-129" to="727.5,270" dur="5.38s" begin="2.94s" repeatCount="indefinite" additive="sum"/></g><g transform="translate(742.5,-144)"><text x="0" y="0" class="m" opacity="1.00">ア</text><text x="0" y="16" class="m" opacity="0.88">セ</text><text x="0" y="32" class="m" opacity="0.76">D</text><text x="0" y="48" class="m" opacity="0.64">M</text><text x="0" y="64" class="m" opacity="0.51">#</text><text x="0" y="80" class="m" opacity="0.39">W</text><text x="0" y="96" class="m" opacity="0.27">ウ</text><animateTransform attributeName="transform" type="translate" from="742.5,-144" to="742.5,270" dur="3.43s" begin="3.23s" repeatCount="indefinite" additive="sum"/></g><g transform="translate(757.5,-101)"><text x="0" y="0" class="m" opacity="1.00">S</text><text x="0" y="16" class="m" opacity="0.92">R</text><text x="0" y="32" class="m" opacity="0.83">ヌ</text><text x="0" y="48" class="m" opacity="0.74">E</text><text x="0" y="64" class="m" opacity="0.66">ネ</text><text x="0" y="80" class="m" opacity="0.57">セ</text><text x="0" y="96" class="m" opacity="0.49">ク</text><text x="0" y="112" class="m" opacity="0.41">O</text><text x="0" y="128" class="m" opacity="0.32">R</text><text x="0" y="144" class="m" opacity="0.23">0</text><animateTransform attributeName="transform" type="translate" from="757.5,-101" to="757.5,270" dur="3.87s" begin="3.54s" repeatCount="indefinite" additive="sum"/></g><g transform="translate(772.5,-42)"><text x="0" y="0" class="m" opacity="1.00">ス</text><text x="0" y="16" class="m" opacity="0.86">コ</text><text x="0" y="32" class="m" opacity="0.72">Y</text><text x="0" y="48" class="m" opacity="0.57">R</text><text x="0" y="64" class="m" opacity="0.43">G</text><text x="0" y="80" class="m" opacity="0.29">C</text><animateTransform attributeName="transform" type="translate" from="772.5,-42" to="772.5,270" dur="5.18s" begin="3.44s" repeatCount="indefinite" additive="sum"/></g><g transform="translate(787.5,-119)"><text x="0" y="0" class="m" opacity="1.00">C</text><text x="0" y="16" class="m" opacity="0.93">キ</text><text x="0" y="32" class="m" opacity="0.86">Y</text><text x="0" y="48" class="m" opacity="0.79">C</text><text x="0" y="64" class="m" opacity="0.72">P</text><text x="0" y="80" class="m" opacity="0.65">G</text><text x="0" y="96" class="m" opacity="0.57">I</text><text x="0" y="112" class="m" opacity="0.50">L</text><text x="0" y="128" class="m" opacity="0.43">テ</text><text x="0" y="144" class="m" opacity="0.36">V</text><text x="0" y="160" class="m" opacity="0.29">&</text><text x="0" y="176" class="m" opacity="0.22">B</text><animateTransform attributeName="transform" type="translate" from="787.5,-119" to="787.5,270" dur="2.65s" begin="1.0s" repeatCount="indefinite" additive="sum"/></g><g transform="translate(802.5,-41)"><text x="0" y="0" class="m" opacity="1.00">$</text><text x="0" y="16" class="m" opacity="0.92">I</text><text x="0" y="32" class="m" opacity="0.83">B</text><text x="0" y="48" class="m" opacity="0.74">&</text><text x="0" y="64" class="m" opacity="0.66">ケ</text><text x="0" y="80" class="m" opacity="0.57">U</text><text x="0" y="96" class="m" opacity="0.49">@</text><text x="0" y="112" class="m" opacity="0.41">D</text><text x="0" y="128" class="m" opacity="0.32">B</text><text x="0" y="144" class="m" opacity="0.23">ソ</text><animateTransform attributeName="transform" type="translate" from="802.5,-41" to="802.5,270" dur="4.34s" begin="2.88s" repeatCount="indefinite" additive="sum"/></g><g transform="translate(817.5,-26)"><text x="0" y="0" class="m" opacity="1.00">N</text><text x="0" y="16" class="m" opacity="0.89">セ</text><text x="0" y="32" class="m" opacity="0.79">タ</text><text x="0" y="48" class="m" opacity="0.68">B</text><text x="0" y="64" class="m" opacity="0.57">ウ</text><text x="0" y="80" class="m" opacity="0.47">S</text><text x="0" y="96" class="m" opacity="0.36">チ</text><text x="0" y="112" class="m" opacity="0.26">セ</text><animateTransform attributeName="transform" type="translate" from="817.5,-26" to="817.5,270" dur="4.76s" begin="3.36s" repeatCount="indefinite" additive="sum"/></g><g transform="translate(832.5,-130)"><text x="0" y="0" class="m" opacity="1.00">キ</text><text x="0" y="16" class="m" opacity="0.92">ク</text><text x="0" y="32" class="m" opacity="0.83">ス</text><text x="0" y="48" class="m" opacity="0.74">ヌ</text><text x="0" y="64" class="m" opacity="0.66">R</text><text x="0" y="80" class="m" opacity="0.57">ク</text><text x="0" y="96" class="m" opacity="0.49">S</text><text x="0" y="112" class="m" opacity="0.41">シ</text><text x="0" y="128" class="m" opacity="0.32">ウ</text><text x="0" y="144" class="m" opacity="0.23">ノ</text><animateTransform attributeName="transform" type="translate" from="832.5,-130" to="832.5,270" dur="3.32s" begin="1.28s" repeatCount="indefinite" additive="sum"/></g><g transform="translate(847.5,-135)"><text x="0" y="0" class="m" opacity="1.00">シ</text><text x="0" y="16" class="m" opacity="0.91">$</text><text x="0" y="32" class="m" opacity="0.81">ノ</text><text x="0" y="48" class="m" opacity="0.72">ヌ</text><text x="0" y="64" class="m" opacity="0.62">&</text><text x="0" y="80" class="m" opacity="0.53">W</text><text x="0" y="96" class="m" opacity="0.43">K</text><text x="0" y="112" class="m" opacity="0.34">R</text><text x="0" y="128" class="m" opacity="0.24">1</text><animateTransform attributeName="transform" type="translate" from="847.5,-135" to="847.5,270" dur="3.72s" begin="2.17s" repeatCount="indefinite" additive="sum"/></g><g transform="translate(862.5,-28)"><text x="0" y="0" class="m" opacity="1.00">0</text><text x="0" y="16" class="m" opacity="0.91">ナ</text><text x="0" y="32" class="m" opacity="0.81">ツ</text><text x="0" y="48" class="m" opacity="0.72">V</text><text x="0" y="64" class="m" opacity="0.62">ヌ</text><text x="0" y="80" class="m" opacity="0.53">#</text><text x="0" y="96" class="m" opacity="0.43">&</text><text x="0" y="112" class="m" opacity="0.34">$</text><text x="0" y="128" class="m" opacity="0.24">ノ</text><animateTransform attributeName="transform" type="translate" from="862.5,-28" to="862.5,270" dur="5.07s" begin="3.06s" repeatCount="indefinite" additive="sum"/></g><g transform="translate(877.5,-94)"><text x="0" y="0" class="m" opacity="1.00">E</text><text x="0" y="16" class="m" opacity="0.93">ス</text><text x="0" y="32" class="m" opacity="0.86">タ</text><text x="0" y="48" class="m" opacity="0.79">A</text><text x="0" y="64" class="m" opacity="0.72">E</text><text x="0" y="80" class="m" opacity="0.65">1</text><text x="0" y="96" class="m" opacity="0.57">ヌ</text><text x="0" y="112" class="m" opacity="0.50">ト</text><text x="0" y="128" class="m" opacity="0.43">P</text><text x="0" y="144" class="m" opacity="0.36">Q</text><text x="0" y="160" class="m" opacity="0.29">Y</text><text x="0" y="176" class="m" opacity="0.22">ネ</text><animateTransform attributeName="transform" type="translate" from="877.5,-94" to="877.5,270" dur="4.11s" begin="2.94s" repeatCount="indefinite" additive="sum"/></g><g transform="translate(892.5,-144)"><text x="0" y="0" class="m" opacity="1.00">ネ</text><text x="0" y="16" class="m" opacity="0.88">K</text><text x="0" y="32" class="m" opacity="0.76">J</text><text x="0" y="48" class="m" opacity="0.64">P</text><text x="0" y="64" class="m" opacity="0.51">1</text><text x="0" y="80" class="m" opacity="0.39">エ</text><text x="0" y="96" class="m" opacity="0.27">O</text><animateTransform attributeName="transform" type="translate" from="892.5,-144" to="892.5,270" dur="4.67s" begin="3.36s" repeatCount="indefinite" additive="sum"/></g></svg>