<svg xmlns="http://www.w3.org/2000/svg" viewBox="0 0 900 120" width="100%" height="120"><rect width="900" height="120" fill="#000000"/><defs><style>.m{font-family:monospace;font-size:14px;fill:#39FF14;}</style></defs><g transform="translate(7.5,-88)"><text x="0" y="0" class="m" opacity="1.00">ス</text><text x="0" y="16" class="m" opacity="0.89">キ</text><text x="0" y="32" class="m" opacity="0.79">U</text><text x="0" y="48" class="m" opacity="0.68">オ</text><text x="0" y="64" class="m" opacity="0.57">Q</text><text x="0" y="80" class="m" opacity="0.47">U</text><text x="0" y="96" class="m" opacity="0.36">H</text><text x="0" y="112" class="m" opacity="0.26">エ</text><animateTransform attributeName="transform" type="translate" from="7.5,-88" to="7.5,270" dur="4.42s" begin="0.1s" repeatCount="indefinite" additive="sum"/></g><g transform="translate(22.5,-95)"><text x="0" y="0" class="m" opacity="1.00">ス</text><text x="0" y="16" class="m" opacity="0.86">F</text><text x="0" y="32" class="m" opacity="0.72">L</text><text x="0" y="48" class="m" opacity="0.57">1</text><text x="0" y="64" class="m" opacity="0.43">I</text><text x="0" y="80" class="m" opacity="0.29">サ</text><animateTransform attributeName="transform" type="translate" from="22.5,-95" to="22.5,270" dur="4.27s" begin="0.13s" repeatCount="indefinite" additive="sum"/></g><g transform="translate(37.5,-94)"><text x="0" y="0" class="m" opacity="1.00">B</text><text x="0" y="16" class="m" opacity="0.91">K</text><text x="0" y="32" class="m" opacity="0.81">タ</text><text x="0" y="48" class="m" opacity="0.72">Y</text><text x="0" y="64" class="m" opacity="0.62">%</text><text x="0" y="80" class="m" opacity="0.53">0</text><text x="0" y="96" class="m" opacity="0.43">V</text><text x="0" y="112" class="m" opacity="0.34">Y</text><text x="0" y="128" class="m" opacity="0.24">ケ</text><animateTransform attributeName="transform" type="translate" from="37.5,-94" to="37.5,270" dur="4.65s" begin="2.81s" repeatCount="indefinite" additive="sum"/></g><g transform="translate(52.5,-95)"><text x="0" y="0" class="m" opacity="1.00">V</text><text x="0" y="16" class="m" opacity="0.88">ト</text><text x="0" y="32" class="m" opacity="0.76">オ</text><text x="0" y="48" class="m" opacity="0.64">エ</text><text x="0" y="64" class="m" opacity="0.51">ヌ</text><text x="0" y="80" class="m" opacity="0.39">オ</text><text x="0" y="96" class="m" opacity="0.27">ナ</text><animateTransform attributeName="transform" type="translate" from="52.5,-95" to="52.5,270" dur="4.59s" begin="1.36s" repeatCount="indefinite" additive="sum"/></g><g transform="translate(67.5,-139)"><text x="0" y="0" class="m" opacity="1.00">T</text><text x="0" y="16" class="m" opacity="0.93">C</text><text x="0" y="32" class="m" opacity="0.86">H</text><text x="0" y="48" class="m" opacity="0.79">カ</text><text x="0" y="64" class="m" opacity="0.72">ヌ</text><text x="0" y="80" class="m" opacity="0.65">エ</text><text x="0" y="96" class="m" opacity="0.57">I</text><text x="0" y="112" class="m" opacity="0.50">チ</text><text x="0" y="128" class="m" opacity="0.43">$</text><text x="0" y="144" class="m" opacity="0.36">N</text><text x="0" y="160" class="m" opacity="0.29">M</text><text x="0" y="176" class="m" opacity="0.22">%</text><animateTransform attributeName="transform" type="translate" from="67.5,-139" to="67.5,270" dur="5.04s" begin="2.41s" repeatCount="indefinite" additive="sum"/></g><g transform="translate(82.5,-139)"><text x="0" y="0" class="m" opacity="1.00">P</text><text x="0" y="16" class="m" opacity="0.86">ス</text><text x="0" y="32" class="m" opacity="0.72">W</text><text x="0" y="48" class="m" opacity="0.57">チ</text><text x="0" y="64" class="m" opacity="0.43">エ</text><text x="0" y="80" class="m" opacity="0.29">#</text><animateTransform attributeName="transform" type="translate" from="82.5,-139" to="82.5,270" dur="3.58s" begin="0.77s" repeatCount="indefinite" additive="sum"/></g><g transform="translate(97.5,-34)"><text x="0" y="0" class="m" opacity="1.00">N</text><text x="0" y="16" class="m" opacity="0.89">$</text><text x="0" y="32" class="m" opacity="0.79">ニ</text><text x="0" y="48" class="m" opacity="0.68">ケ</text><text x="0" y="64" class="m" opacity="0.57">ニ</text><text x="0" y="80" class="m" opacity="0.47">ナ</text><text x="0" y="96" class="m" opacity="0.36">シ</text><text x="0" y="112" class="m" opacity="0.26">P</text><animateTransform attributeName="transform" type="translate" from="97.5,-34" to="97.5,270" dur="3.2s" begin="0.4s" repeatCount="indefinite" additive="sum"/></g><g transform="translate(112.5,-132)"><text x="0" y="0" class="m" opacity="1.00">L</text><text x="0" y="16" class="m" opacity="0.92">N</text><text x="0" y="32" class="m" opacity="0.85">ケ</text><text x="0" y="48" class="m" opacity="0.77">H</text><text x="0" y="64" class="m" opacity="0.69">T</text><text x="0" y="80" class="m" opacity="0.61">セ</text><text x="0" y="96" class="m" opacity="0.54">ケ</text><text x="0" y="112" class="m" opacity="0.46">C</text><text x="0" y="128" class="m" opacity="0.38">ヌ</text><text x="0" y="144" class="m" opacity="0.30">タ</text><text x="0" y="160" class="m" opacity="0.23">N</text><animateTransform attributeName="transform" type="translate" from="112.5,-132" to="112.5,270" dur="3.3s" begin="3.75s" repeatCount="indefinite" additive="sum"/></g><g transform="translate(127.5,-136)"><text x="0" y="0" class="m" opacity="1.00">ス</text><text x="0" y="16" class="m" opacity="0.89">Z</text><text x="0" y="32" class="m" opacity="0.79">ア</text><text x="0" y="48" class="m" opacity="0.68">Y</text><text x="0" y="64" class="m" opacity="0.57">テ</text><text x="0" y="80" class="m" opacity="0.47">ネ</text><text x="0" y="96" class="m" opacity="0.36">タ</text><text x="0" y="112" class="m" opacity="0.26">ウ</text><animateTransform attributeName="transform" type="translate" from="127.5,-136" to="127.5,270" dur="4.56s" begin="0.88s" repeatCount="indefinite" additive="sum"/></g><g transform="translate(142.5,-70)"><text x="0" y="0" class="m" opacity="1.00">シ</text><text x="0" y="16" class="m" opacity="0.92">O</text><text x="0" y="32" class="m" opacity="0.85">E</text><text x="0" y="48" class="m" opacity="0.77">ネ</text><text x="0" y="64" class="m" opacity="0.69">O</text><text x="0" y="80" class="m" opacity="0.61">C</text><text x="0" y="96" class="m" opacity="0.54">ク</text><text x="0" y="112" class="m" opacity="0.46">ソ</text><text x="0" y="128" class="m" opacity="0.38">キ</text><text x="0" y="144" class="m" opacity="0.30">セ</text><text x="0" y="160" class="m" opacity="0.23">U</text><animateTransform attributeName="transform" type="translate" from="142.5,-70" to="142.5,270" dur="3.13s" begin="3.77s" repeatCount="indefinite" additive="sum"/></g><g transform="translate(157.5,-41)"><text x="0" y="0" class="m" opacity="1.00">K</text><text x="0" y="16" class="m" opacity="0.92">ネ</text><text x="0" y="32" class="m" opacity="0.83">ニ</text><text x="0" y="48" class="m" opacity="0.74">ス</text><text x="0" y="64" class="m" opacity="0.66">キ</text><text x="0" y="80" class="m" opacity="0.57">F</text><text x="0" y="96" class="m" opacity="0.49">E</text><text x="0" y="112" class="m" opacity="0.41">エ</text><text x="0" y="128" class="m" opacity="0.32">V</text><text x="0" y="144" class="m" opacity="0.23">イ</text><animateTransform attributeName="transform" type="translate" from="157.5,-41" to="157.5,270" dur="4.18s" begin="1.05s" repeatCount="indefinite" additive="sum"/></g><g transform="translate(172.5,-42)"><text x="0" y="0" class="m" opacity="1.00">L</text><text x="0" y="16" class="m" opacity="0.88">ウ</text><text x="0" y="32" class="m" opacity="0.76">ヌ</text><text x="0" y="48" class="m" opacity="0.64">ヌ</text><text x="0" y="64" class="m" opacity="0.51">L</text><text x="0" y="80" class="m" opacity="0.39">C</text><text x="0" y="96" class="m" opacity="0.27">G</text><animateTransform attributeName="transform" type="translate" from="172.5,-42" to="172.5,270" dur="5.08s" begin="0.61s" repeatCount="indefinite" additive="sum"/></g><g transform="translate(187.5,-121)"><text x="0" y="0" class="m" opacity="1.00">Q</text><text x="0" y="16" class="m" opacity="0.86">H</text><text x="0" y="32" class="m" opacity="0.72">V</text><text x="0" y="48" class="m" opacity="0.57">タ</text><text x="0" y="64" class="m" opacity="0.43">W</text><text x="0" y="80" class="m" opacity="0.29">O</text><animateTransform attributeName="transform" type="translate" from="187.5,-121" to="187.5,270" dur="3.25s" begin="2.21s" repeatCount="indefinite" additive="sum"/></g><g transform="translate(202.5,-34)"><text x="0" y="0" class="m" opacity="1.00">0</text><text x="0" y="16" class="m" opacity="0.88">T</text><text x="0" y="32" class="m" opacity="0.76">T</text><text x="0" y="48" class="m" opacity="0.64">ソ</text><text x="0" y="64" class="m" opacity="0.51">F</text><text x="0" y="80" class="m" opacity="0.39">V</text><text x="0" y="96" class="m" opacity="0.27">コ</text><animateTransform attributeName="transform" type="translate" from="202.5,-34" to="202.5,270" dur="3.52s" begin="1.17s" repeatCount="indefinite" additive="sum"/></g><g transform="translate(217.5,-74)"><text x="0" y="0" class="m" opacity="1.00">$</text><text x="0" y="16" class="m" opacity="0.92">N</text><text x="0" y="32" class="m" opacity="0.85">F</text><text x="0" y="48" class="m" opacity="0.77">L</text><text x="0" y="64" class="m" opacity="0.69">サ</text><text x="0" y="80" class="m" opacity="0.61">ク</text><text x="0" y="96" class="m" opacity="0.54">ニ</text><text x="0" y="112" class="m" opacity="0.46">V</text><text x="0" y="128" class="m" opacity="0.38">ケ</text><text x="0" y="144" class="m" opacity="0.30">H</text><text x="0" y="160" class="m" opacity="0.23">W</text><animateTransform attributeName="transform" type="translate" from="217.5,-74" to="217.5,270" dur="4.02s" begin="0.43s" repeatCount="indefinite" additive="sum"/></g><g transform="translate(232.5,-68)"><text x="0" y="0" class="m" opacity="1.00">E</text><text x="0" y="16" class="m" opacity="0.92">1</text><text x="0" y="32" class="m" opacity="0.83">カ</text><text x="0" y="48" class="m" opacity="0.74">ニ</text><text x="0" y="64" class="m" opacity="0.66">$</text><text x="0" y="80" class="m" opacity="0.57">Y</text><text x="0" y="96" class="m" opacity="0.49">ツ</text><text x="0" y="112" class="m" opacity="0.41">セ</text><text x="0" y="128" class="m" opacity="0.32">イ</text><text x="0" y="144" class="m" opacity="0.23">セ</text><animateTransform attributeName="transform" type="translate" from="232.5,-68" to="232.5,270" dur="5.27s" begin="3.67s" repeatCount="indefinite" additive="sum"/></g><g transform="translate(247.5,-26)"><text x="0" y="0" class="m" opacity="1.00">Z</text><text x="0" y="16" class="m" opacity="0.86">ウ</text><text x="0" y="32" class="m" opacity="0.72">V</text><text x="0" y="48" class="m" opacity="0.57">H</text><text x="0" y="64" class="m" opacity="0.43">W</text><text x="0" y="80" class="m" opacity="0.29">キ</text><animateTransform attributeName="transform" type="translate" from="247.5,-26" to="247.5,270" dur="5.13s" begin="3.79s" repeatCount="indefinite" additive="sum"/></g><g transform="translate(262.5,-108)"><text x="0" y="0" class="m" opacity="1.00">ソ</text><text x="0" y="16" class="m" opacity="0.92">G</text><text x="0" y="32" class="m" opacity="0.83">%</text><text x="0" y="48" class="m" opacity="0.74">L</text><text x="0" y="64" class="m" opacity="0.66">A</text><text x="0" y="80" class="m" opacity="0.57">シ</text><text x="0" y="96" class="m" opacity="0.49">H</text><text x="0" y="112" class="m" opacity="0.41">V</text><text x="0" y="128" class="m" opacity="0.32">T</text><text x="0" y="144" class="m" opacity="0.23">R</text><animateTransform attributeName="transform" type="translate" from="262.5,-108" to="262.5,270" dur="2.89s" begin="1.9s" repeatCount="indefinite" additive="sum"/></g><g transform="translate(277.5,-55)"><text x="0" y="0" class="m" opacity="1.00">B</text><text x="0" y="16" class="m" opacity="0.92">G</text><text x="0" y="32" class="m" opacity="0.85">B</text><text x="0" y="48" class="m" opacity="0.77">カ</text><text x="0" y="64" class="m" opacity="0.69">セ</text><text x="0" y="80" class="m" opacity="0.61">ス</text><text x="0" y="96" class="m" opacity="0.54">ウ</text><text x="0" y="112" class="m" opacity="0.46">ト</text><text x="0" y="128" class="m" opacity="0.38">1</text><text x="0" y="144" class="m" opacity="0.30">K</text><text x="0" y="160" class="m" opacity="0.23">I</text><animateTransform attributeName="transform" type="translate" from="277.5,-55" to="277.5,270" dur="3.1s" begin="1.25s" repeatCount="indefinite" additive="sum"/></g><g transform="translate(292.5,-135)"><text x="0" y="0" class="m" opacity="1.00">ス</text><text x="0" y="16" class="m" opacity="0.86">ウ</text><text x="0" y="32" class="m" opacity="0.72">ア</text><text x="0" y="48" class="m" opacity="0.57">%</text><text x="0" y="64" class="m" opacity="0.43">ト</text><text x="0" y="80" class="m" opacity="0.29">ウ</text><animateTransform attributeName="transform" type="translate" from="292.5,-135" to="292.5,270" dur="3.19s" begin="0.88s" repeatCount="indefinite" additive="sum"/></g><g transform="translate(307.5,-96)"><text x="0" y="0" class="m" opacity="1.00">H</text><text x="0" y="16" class="m" opacity="0.91">キ</text><text x="0" y="32" class="m" opacity="0.81">T</text><text x="0" y="48" class="m" opacity="0.72">J</text><text x="0" y="64" class="m" opacity="0.62">J</text><text x="0" y="80" class="m" opacity="0.53">D</text><text x="0" y="96" class="m" opacity="0.43">セ</text><text x="0" y="112" class="m" opacity="0.34">X</text><text x="0" y="128" class="m" opacity="0.24">D</text><animateTransform attributeName="transform" type="translate" from="307.5,-96" to="307.5,270" dur="4.04s" begin="1.11s" repeatCount="indefinite" additive="sum"/></g><g transform="translate(322.5,-40)"><text x="0" y="0" class="m" opacity="1.00">ナ</text><text x="0" y="16" class="m" opacity="0.86">A</text><text x="0" y="32" class="m" opacity="0.72">ノ</text><text x="0" y="48" class="m" opacity="0.57">C</text><text x="0" y="64" class="m" opacity="0.43">%</text><text x="0" y="80" class="m" opacity="0.29">T</text><animateTransform attributeName="transform" type="translate" from="322.5,-40" to="322.5,270" dur="4.92s" begin="0.76s" repeatCount="indefinite" additive="sum"/></g><g transform="translate(337.5,-125)"><text x="0" y="0" class="m" opacity="1.00">イ</text><text x="0" y="16" class="m" opacity="0.92">ネ</text><text x="0" y="32" class="m" opacity="0.85">T</text><text x="0" y="48" class="m" opacity="0.77">ト</text><text x="0" y="64" class="m" opacity="0.69">Y</text><text x="0" y="80" class="m" opacity="0.61">%</text><text x="0" y="96" class="m" opacity="0.54">オ</text><text x="0" y="112" class="m" opacity="0.46">セ</text><text x="0" y="128" class="m" opacity="0.38">サ</text><text x="0" y="144" class="m" opacity="0.30">サ</text><text x="0" y="160" class="m" opacity="0.23">H</text><animateTransform attributeName="transform" type="translate" from="337.5,-125" to="337.5,270" dur="2.66s" begin="2.61s" repeatCount="indefinite" additive="sum"/></g><g transform="translate(352.5,-32)"><text x="0" y="0" class="m" opacity="1.00">セ</text><text x="0" y="16" class="m" opacity="0.89">%</text><text x="0" y="32" class="m" opacity="0.79">ウ</text><text x="0" y="48" class="m" opacity="0.68">B</text><text x="0" y="64" class="m" opacity="0.57">Y</text><text x="0" y="80" class="m" opacity="0.47">%</text><text x="0" y="96" class="m" opacity="0.36">#</text><text x="0" y="112" class="m" opacity="0.26">I</text><animateTransform attributeName="transform" type="translate" from="352.5,-32" to="352.5,270" dur="3.85s" begin="1.69s" repeatCount="indefinite" additive="sum"/></g><g transform="translate(367.5,-147)"><text x="0" y="0" class="m" opacity="1.00">エ</text><text x="0" y="16" class="m" opacity="0.92">V</text><text x="0" y="32" class="m" opacity="0.83">#</text><text x="0" y="48" class="m" opacity="0.74">セ</text><text x="0" y="64" class="m" opacity="0.66">ケ</text><text x="0" y="80" class="m" opacity="0.57">ノ</text><text x="0" y="96" class="m" opacity="0.49">E</text><text x="0" y="112" class="m" opacity="0.41">D</text><text x="0" y="128" class="m" opacity="0.32">シ</text><text x="0" y="144" class="m" opacity="0.23">%</text><animateTransform attributeName="transform" type="translate" from="367.5,-147" to="367.5,270" dur="2.79s" begin="2.61s" repeatCount="indefinite" additive="sum"/></g><g transform="translate(382.5,-150)"><text x="0" y="0" class="m" opacity="1.00">ヌ</text><text x="0" y="16" class="m" opacity="0.91">ソ</text><text x="0" y="32" class="m" opacity="0.81">X</text><text x="0" y="48" class="m" opacity="0.72">X</text><text x="0" y="64" class="m" opacity="0.62">C</text><text x="0" y="80" class="m" opacity="0.53">チ</text><text x="0" y="96" class="m" opacity="0.43">A</text><text x="0" y="112" class="m" opacity="0.34">R</text><text x="0" y="128" class="m" opacity="0.24">T</text><animateTransform attributeName="transform" type="translate" from="382.5,-150" to="382.5,270" dur="3.7s" begin="0.23s" repeatCount="indefinite" additive="sum"/></g><g transform="translate(397.5,-26)"><text x="0" y="0" class="m" opacity="1.00">ク</text><text x="0" y="16" class="m" opacity="0.92">サ</text><text x="0" y="32" class="m" opacity="0.85">チ</text><text x="0" y="48" class="m" opacity="0.77">シ</text><text x="0" y="64" class="m" opacity="0.69">イ</text><text x="0" y="80" class="m" opacity="0.61">K</text><text x="0" y="96" class="m" opacity="0.54">U</text><text x="0" y="112" class="m" opacity="0.46">H</text><text x="0" y="128" class="m" opacity="0.38">イ</text><text x="0" y="144" class="m" opacity="0.30">U</text><text x="0" y="160" class="m" opacity="0.23">テ</text><animateTransform attributeName="transform" type="translate" from="397.5,-26" to="397.5,270" dur="5.49s" begin="2.22s" repeatCount="indefinite" additive="sum"/></g><g transform="translate(412.5,-110)"><text x="0" y="0" class="m" opacity="1.00">イ</text><text x="0" y="16" class="m" opacity="0.92">F</text><text x="0" y="32" class="m" opacity="0.83">エ</text><text x="0" y="48" class="m" opacity="0.74">#</text><text x="0" y="64" class="m" opacity="0.66">コ</text><text x="0" y="80" class="m" opacity="0.57">ウ</text><text x="0" y="96" class="m" opacity="0.49">L</text><text x="0" y="112" class="m" opacity="0.41">ウ</text><text x="0" y="128" class="m" opacity="0.32">Q</text><text x="0" y="144" class="m" opacity="0.23">%</text><animateTransform attributeName="transform" type="translate" from="412.5,-110" to="412.5,270" dur="2.67s" begin="2.34s" repeatCount="indefinite" additive="sum"/></g><g transform="translate(427.5,-87)"><text x="0" y="0" class="m" opacity="1.00">K</text><text x="0" y="16" class="m" opacity="0.92">L</text><text x="0" y="32" class="m" opacity="0.83">ア</text><text x="0" y="48" class="m" opacity="0.74">M</text><text x="0" y="64" class="m" opacity="0.66">エ</text><text x="0" y="80" class="m" opacity="0.57">ノ</text><text x="0" y="96" class="m" opacity="0.49">P</text><text x="0" y="112" class="m" opacity="0.41">K</text><text x="0" y="128" class="m" opacity="0.32">J</text><text x="0" y="144" class="m" opacity="0.23">G</text><animateTransform attributeName="transform" type="translate" from="427.5,-87" to="427.5,270" dur="3.21s" begin="0.48s" repeatCount="indefinite" additive="sum"/></g><g transform="translate(442.5,-70)"><text x="0" y="0" class="m" opacity="1.00">セ</text><text x="0" y="16" class="m" opacity="0.92">ソ</text><text x="0" y="32" class="m" opacity="0.85">ネ</text><text x="0" y="48" class="m" opacity="0.77">キ</text><text x="0" y="64" class="m" opacity="0.69">P</text><text x="0" y="80" class="m" opacity="0.61">O</text><text x="0" y="96" class="m" opacity="0.54">ツ</text><text x="0" y="112" class="m" opacity="0.46">C</text><text x="0" y="128" class="m" opacity="0.38">テ</text><text x="0" y="144" class="m" opacity="0.30">V</text><text x="0" y="160" class="m" opacity="0.23">ウ</text><animateTransform attributeName="transform" type="translate" from="442.5,-70" to="442.5,270" dur="3.45s" begin="1.04s" repeatCount="indefinite" additive="sum"/></g><g transform="translate(457.5,-125)"><text x="0" y="0" class="m" opacity="1.00">ウ</text><text x="0" y="16" class="m" opacity="0.92">H</text><text x="0" y="32" class="m" opacity="0.83">シ</text><text x="0" y="48" class="m" opacity="0.74">F</text><text x="0" y="64" class="m" opacity="0.66">ソ</text><text x="0" y="80" class="m" opacity="0.57">キ</text><text x="0" y="96" class="m" opacity="0.49">ナ</text><text x="0" y="112" class="m" opacity="0.41">ウ</text><text x="0" y="128" class="m" opacity="0.32">セ</text><text x="0" y="144" class="m" opacity="0.23">ニ</text><animateTransform attributeName="transform" type="translate" from="457.5,-125" to="457.5,270" dur="2.53s" begin="2.48s" repeatCount="indefinite" additive="sum"/></g><g transform="translate(472.5,-73)"><text x="0" y="0" class="m" opacity="1.00">M</text><text x="0" y="16" class="m" opacity="0.92">Y</text><text x="0" y="32" class="m" opacity="0.83">O</text><text x="0" y="48" class="m" opacity="0.74">G</text><text x="0" y="64" class="m" opacity="0.66">0</text><text x="0" y="80" class="m" opacity="0.57">P</text><text x="0" y="96" class="m" opacity="0.49">Z</text><text x="0" y="112" class="m" opacity="0.41">I</text><text x="0" y="128" class="m" opacity="0.32">ツ</text><text x="0" y="144" class="m" opacity="0.23">P</text><animateTransform attributeName="transform" type="translate" from="472.5,-73" to="472.5,270" dur="3.35s" begin="1.75s" repeatCount="indefinite" additive="sum"/></g><g transform="translate(487.5,-121)"><text x="0" y="0" class="m" opacity="1.00">オ</text><text x="0" y="16" class="m" opacity="0.89">U</text><text x="0" y="32" class="m" opacity="0.79">I</text><text x="0" y="48" class="m" opacity="0.68">ク</text><text x="0" y="64" class="m" opacity="0.57">タ</text><text x="0" y="80" class="m" opacity="0.47">チ</text><text x="0" y="96" class="m" opacity="0.36">L</text><text x="0" y="112" class="m" opacity="0.26">シ</text><animateTransform attributeName="transform" type="translate" from="487.5,-121" to="487.5,270" dur="2.81s" begin="3.51s" repeatCount="indefinite" additive="sum"/></g><g transform="translate(502.5,-83)"><text x="0" y="0" class="m" opacity="1.00">F</text><text x="0" y="16" class="m" opacity="0.92">E</text><text x="0" y="32" class="m" opacity="0.85">ソ</text><text x="0" y="48" class="m" opacity="0.77">#</text><text x="0" y="64" class="m" opacity="0.69">イ</text><text x="0" y="80" class="m" opacity="0.61">エ</text><text x="0" y="96" class="m" opacity="0.54">N</text><text x="0" y="112" class="m" opacity="0.46">A</text><text x="0" y="128" class="m" opacity="0.38">$</text><text x="0" y="144" class="m" opacity="0.30">タ</text><text x="0" y="160" class="m" opacity="0.23">ア</text><animateTransform attributeName="transform" type="translate" from="502.5,-83" to="502.5,270" dur="4.65s" begin="0.81s" repeatCount="indefinite" additive="sum"/></g><g transform="translate(517.5,-83)"><text x="0" y="0" class="m" opacity="1.00">ケ</text><text x="0" y="16" class="m" opacity="0.92">U</text><text x="0" y="32" class="m" opacity="0.85">B</text><text x="0" y="48" class="m" opacity="0.77">I</text><text x="0" y="64" class="m" opacity="0.69">S</text><text x="0" y="80" class="m" opacity="0.61">A</text><text x="0" y="96" class="m" opacity="0.54">I</text><text x="0" y="112" class="m" opacity="0.46">0</text><text x="0" y="128" class="m" opacity="0.38">カ</text><text x="0" y="144" class="m" opacity="0.30">ウ</text><text x="0" y="160" class="m" opacity="0.23">R</text><animateTransform attributeName="transform" type="translate" from="517.5,-83" to="517.5,270" dur="2.51s" begin="3.08s" repeatCount="indefinite" additive="sum"/></g><g transform="translate(532.5,-56)"><text x="0" y="0" class="m" opacity="1.00">K</text><text x="0" y="16" class="m" opacity="0.93">I</text><text x="0" y="32" class="m" opacity="0.86">ク</text><text x="0" y="48" class="m" opacity="0.79">A</text><text x="0" y="64" class="m" opacity="0.72">キ</text><text x="0" y="80" class="m" opacity="0.65">ア</text><text x="0" y="96" class="m" opacity="0.57">ツ</text><text x="0" y="112" class="m" opacity="0.50">ニ</text><text x="0" y="128" class="m" opacity="0.43">X</text><text x="0" y="144" class="m" opacity="0.36">%</text><text x="0" y="160" class="m" opacity="0.29">ア</text><text x="0" y="176" class="m" opacity="0.22">ナ</text><animateTransform attributeName="transform" type="translate" from="532.5,-56" to="532.5,270" dur="5.21s" begin="2.18s" repeatCount="indefinite" additive="sum"/></g><g transform="translate(547.5,-60)"><text x="0" y="0" class="m" opacity="1.00">W</text><text x="0" y="16" class="m" opacity="0.86">I</text><text x="0" y="32" class="m" opacity="0.72">%</text><text x="0" y="48" class="m" opacity="0.57">ノ</text><text x="0" y="64" class="m" opacity="0.43">M</text><text x="0" y="80" class="m" opacity="0.29">U</text><animateTransform attributeName="transform" type="translate" from="547.5,-60" to="547.5,270" dur="3.13s" begin="1.0s" repeatCount="indefinite" additive="sum"/></g><g transform="translate(562.5,-109)"><text x="0" y="0" class="m" opacity="1.00">Y</text><text x="0" y="16" class="m" opacity="0.93">Y</text><text x="0" y="32" class="m" opacity="0.86">コ</text><text x="0" y="48" class="m" opacity="0.79">ノ</text><text x="0" y="64" class="m" opacity="0.72">1</text><text x="0" y="80" class="m" opacity="0.65">コ</text><text x="0" y="96" class="m" opacity="0.57">U</text><text x="0" y="112" class="m" opacity="0.50">ト</text><text x="0" y="128" class="m" opacity="0.43">X</text><text x="0" y="144" class="m" opacity="0.36">ノ</text><text x="0" y="160" class="m" opacity="0.29">Y</text><text x="0" y="176" class="m" opacity="0.22">P</text><animateTransform attributeName="transform" type="translate" from="562.5,-109" to="562.5,270" dur="2.96s" begin="3.72s" repeatCount="indefinite" additive="sum"/></g><g transform="translate(577.5,-110)"><text x="0" y="0" class="m" opacity="1.00">X</text><text x="0" y="16" class="m" opacity="0.89">R</text><text x="0" y="32" class="m" opacity="0.79">オ</text><text x="0" y="48" class="m" opacity="0.68">ヌ</text><text x="0" y="64" class="m" opacity="0.57">%</text><text x="0" y="80" class="m" opacity="0.47">ア</text><text x="0" y="96" class="m" opacity="0.36">#</text><text x="0" y="112" class="m" opacity="0.26">D</text><animateTransform attributeName="transform" type="translate" from="577.5,-110" to="577.5,270" dur="5.09s" begin="3.24s" repeatCount="indefinite" additive="sum"/></g><g transform="translate(592.5,-61)"><text x="0" y="0" class="m" opacity="1.00">ツ</text><text x="0" y="16" class="m" opacity="0.91">Z</text><text x="0" y="32" class="m" opacity="0.81">X</text><text x="0" y="48" class="m" opacity="0.72">%</text><text x="0" y="64" class="m" opacity="0.62">ス</text><text x="0" y="80" class="m" opacity="0.53">ス</text><text x="0" y="96" class="m" opacity="0.43">1</text><text x="0" y="112" class="m" opacity="0.34">P</text><text x="0" y="128" class="m" opacity="0.24">サ</text><animateTransform attributeName="transform" type="translate" from="592.5,-61" to="592.5,270" dur="3.17s" begin="3.27s" repeatCount="indefinite" additive="sum"/></g><g transform="translate(607.5,-79)"><text x="0" y="0" class="m" opacity="1.00">ナ</text><text x="0" y="16" class="m" opacity="0.86">O</text><text x="0" y="32" class="m" opacity="0.72">F</text><text x="0" y="48" class="m" opacity="0.57">ネ</text><text x="0" y="64" class="m" opacity="0.43">Q</text><text x="0" y="80" class="m" opacity="0.29">$</text><animateTransform attributeName="transform" type="translate" from="607.5,-79" to="607.5,270" dur="3.7s" begin="1.11s" repeatCount="indefinite" additive="sum"/></g><g transform="translate(622.5,-84)"><text x="0" y="0" class="m" opacity="1.00">コ</text><text x="0" y="16" class="m" opacity="0.86">K</text><text x="0" y="32" class="m" opacity="0.72">ソ</text><text x="0" y="48" class="m" opacity="0.57">ア</text><text x="0" y="64" class="m" opacity="0.43">オ</text><text x="0" y="80" class="m" opacity="0.29">L</text><animateTransform attributeName="transform" type="translate" from="622.5,-84" to="622.5,270" dur="4.11s" begin="3.76s" repeatCount="indefinite" additive="sum"/></g><g transform="translate(637.5,-39)"><text x="0" y="0" class="m" opacity="1.00">L</text><text x="0" y="16" class="m" opacity="0.89">F</text><text x="0" y="32" class="m" opacity="0.79">カ</text><text x="0" y="48" class="m" opacity="0.68">ヌ</text><text x="0" y="64" class="m" opacity="0.57">J</text><text x="0" y="80" class="m" opacity="0.47">サ</text><text x="0" y="96" class="m" opacity="0.36">ソ</text><text x="0" y="112" class="m" opacity="0.26">ア</text><animateTransform attributeName="transform" type="translate" from="637.5,-39" to="637.5,270" dur="3.8s" begin="2.91s" repeatCount="indefinite" additive="sum"/></g><g transform="translate(652.5,-100)"><text x="0" y="0" class="m" opacity="1.00">ニ</text><text x="0" y="16" class="m" opacity="0.93">A</text><text x="0" y="32" class="m" opacity="0.86">ウ</text><text x="0" y="48" class="m" opacity="0.79">P</text><text x="0" y="64" class="m" opacity="0.72">ト</text><text x="0" y="80" class="m" opacity="0.65">M</text><text x="0" y="96" class="m" opacity="0.57">テ</text><text x="0" y="112" class="m" opacity="0.50">P</text><text x="0" y="128" class="m" opacity="0.43">#</text><text x="0" y="144" class="m" opacity="0.36">カ</text><text x="0" y="160" class="m" opacity="0.29">T</text><text x="0" y="176" class="m" opacity="0.22">ツ</text><animateTransform attributeName="transform" type="translate" from="652.5,-100" to="652.5,270" dur="4.63s" begin="0.01s" repeatCount="indefinite" additive="sum"/></g><g transform="translate(667.5,-47)"><text x="0" y="0" class="m" opacity="1.00">R</text><text x="0" y="16" class="m" opacity="0.89">チ</text><text x="0" y="32" class="m" opacity="0.79">I</text><text x="0" y="48" class="m" opacity="0.68">キ</text><text x="0" y="64" class="m" opacity="0.57">サ</text><text x="0" y="80" class="m" opacity="0.47">ノ</text><text x="0" y="96" class="m" opacity="0.36">P</text><text x="0" y="112" class="m" opacity="0.26">ヌ</text><animateTransform attributeName="transform" type="translate" from="667.5,-47" to="667.5,270" dur="4.02s" begin="2.67s" repeatCount="indefinite" additive="sum"/></g><g transform="translate(682.5,-73)"><text x="0" y="0" class="m" opacity="1.00">ネ</text><text x="0" y="16" class="m" opacity="0.92">I</text><text x="0" y="32" class="m" opacity="0.83">$</text><text x="0" y="48" class="m" opacity="0.74">0</text><text x="0" y="64" class="m" opacity="0.66">ツ</text><text x="0" y="80" class="m" opacity="0.57">チ</text><text x="0" y="96" class="m" opacity="0.49">シ</text><text x="0" y="112" class="m" opacity="0.41">A</text><text x="0" y="128" class="m" opacity="0.32">X</text><text x="0" y="144" class="m" opacity="0.23">K</text><animateTransform attributeName="transform" type="translate" from="682.5,-73" to="682.5,270" dur="4.53s" begin="3.61s" repeatCount="indefinite" additive="sum"/></g><g transform="translate(697.5,-37)"><text x="0" y="0" class="m" opacity="1.00">Q</text><text x="0" y="16" class="m" opacity="0.91">シ</text><text x="0" y="32" class="m" opacity="0.81">F</text><text x="0" y="48" class="m" opacity="0.72">D</text><text x="0" y="64" class="m" opacity="0.62">X</text><text x="0" y="80" class="m" opacity="0.53">X</text><text x="0" y="96" class="m" opacity="0.43">U</text><text x="0" y="112" class="m" opacity="0.34">ケ</text><text x="0" y="128" class="m" opacity="0.24">P</text><animateTransform attributeName="transform" type="translate" from="697.5,-37" to="697.5,270" dur="4.32s" begin="1.29s" repeatCount="indefinite" additive="sum"/></g><g transform="translate(712.5,-65)"><text x="0" y="0" class="m" opacity="1.00">エ</text><text x="0" y="16" class="m" opacity="0.92">Z</text><text x="0" y="32" class="m" opacity="0.85">V</text><text x="0" y="48" class="m" opacity="0.77">セ</text><text x="0" y="64" class="m" opacity="0.69">Q</text><text x="0" y="80" class="m" opacity="0.61">ツ</text><text x="0" y="96" class="m" opacity="0.54">ス</text><text x="0" y="112" class="m" opacity="0.46">Y</text><text x="0" y="128" class="m" opacity="0.38">サ</text><text x="0" y="144" class="m" opacity="0.30">ク</text><text x="0" y="160" class="m" opacity="0.23">1</text><animateTransform attributeName="transform" type="translate" from="712.5,-65" to="712.5,270" dur="2.75s" begin="2.06s" repeatCount="indefinite" additive="sum"/></g><g transform="translate(727.5,-132)"><text x="0" y="0" class="m" opacity="1.00">C</text><text x="0" y="16" class="m" opacity="0.92">ノ</text><text x="0" y="32" class="m" opacity="0.83">N</text><text x="0" y="48" class="m" opacity="0.74">J</text><text x="0" y="64" class="m" opacity="0.66">サ</text><text x="0" y="80" class="m" opacity="0.57">S</text><text x="0" y="96" class="m" opacity="0.49">R</text><text x="0" y="112" class="m" opacity="0.41">ヌ</text><text x="0" y="128" class="m" opacity="0.32">E</text><text x="0" y="144" class="m" opacity="0.23">ネ</text><animateTransform attributeName="transform" type="translate" from="727.5,-132" to="727.5,270" dur="2.64s" begin="3.94s" repeatCount="indefinite" additive="sum"/></g><g transform="translate(742.5,-123)"><text x="0" y="0" class="m" opacity="1.00">W</text><text x="0" y="16" class="m" opacity="0.86">A</text><text x="0" y="32" class="m" opacity="0.72">ス</text><text x="0" y="48" class="m" opacity="0.57">コ</text><text x="0" y="64" class="m" opacity="0.43">Y</text><text x="0" y="80" class="m" opacity="0.29">R</text><animateTransform attributeName="transform" type="translate" from="742.5,-123" to="742.5,270" dur="3.23s" begin="2.62s" repeatCount="indefinite" additive="sum"/></g><g transform="translate(757.5,-119)"><text x="0" y="0" class="m" opacity="1.00">C</text><text x="0" y="16" class="m" opacity="0.88">キ</text><text x="0" y="32" class="m" opacity="0.76">Y</text><text x="0" y="48" class="m" opacity="0.64">C</text><text x="0" y="64" class="m" opacity="0.51">P</text><text x="0" y="80" class="m" opacity="0.39">G</text><text x="0" y="96" class="m" opacity="0.27">I</text><animateTransform attributeName="transform" type="translate" from="757.5,-119" to="757.5,270" dur="4.05s" begin="0.2s" repeatCount="indefinite" additive="sum"/></g><g transform="translate(772.5,-21)"><text x="0" y="0" class="m" opacity="1.00">A</text><text x="0" y="16" class="m" opacity="0.91">$</text><text x="0" y="32" class="m" opacity="0.81">I</text><text x="0" y="48" class="m" opacity="0.72">B</text><text x="0" y="64" class="m" opacity="0.62">ケ</text><text x="0" y="80" class="m" opacity="0.53">U</text><text x="0" y="96" class="m" opacity="0.43">%</text><text x="0" y="112" class="m" opacity="0.34">D</text><text x="0" y="128" class="m" opacity="0.24">B</text><animateTransform attributeName="transform" type="translate" from="772.5,-21" to="772.5,270" dur="4.29s" begin="3.8s" repeatCount="indefinite" additive="sum"/></g><g transform="translate(787.5,-80)"><text x="0" y="0" class="m" opacity="1.00">W</text><text x="0" y="16" class="m" opacity="0.92">W</text><text x="0" y="32" class="m" opacity="0.85">G</text><text x="0" y="48" class="m" opacity="0.77">E</text><text x="0" y="64" class="m" opacity="0.69">N</text><text x="0" y="80" class="m" opacity="0.61">セ</text><text x="0" y="96" class="m" opacity="0.54">タ</text><text x="0" y="112" class="m" opacity="0.46">B</text><text x="0" y="128" class="m" opacity="0.38">ウ</text><text x="0" y="144" class="m" opacity="0.30">S</text><text x="0" y="160" class="m" opacity="0.23">チ</text><animateTransform attributeName="transform" type="translate" from="787.5,-80" to="787.5,270" dur="3.28s" begin="0.99s" repeatCount="indefinite" additive="sum"/></g><g transform="translate(802.5,-130)"><text x="0" y="0" class="m" opacity="1.00">キ</text><text x="0" y="16" class="m" opacity="0.92">ク</text><text x="0" y="32" class="m" opacity="0.83">ス</text><text x="0" y="48" class="m" opacity="0.74">ヌ</text><text x="0" y="64" class="m" opacity="0.66">R</text><text x="0" y="80" class="m" opacity="0.57">ク</text><text x="0" y="96" class="m" opacity="0.49">S</text><text x="0" y="112" class="m" opacity="0.41">シ</text><text x="0" y="128" class="m" opacity="0.32">ウ</text><text x="0" y="144" class="m" opacity="0.23">ノ</text><animateTransform attributeName="transform" type="translate" from="802.5,-130" to="802.5,270" dur="3.2s" begin="1.34s" repeatCount="indefinite" additive="sum"/></g><g transform="translate(817.5,-135)"><text x="0" y="0" class="m" opacity="1.00">シ</text><text x="0" y="16" class="m" opacity="0.91">$</text><text x="0" y="32" class="m" opacity="0.81">ノ</text><text x="0" y="48" class="m" opacity="0.72">ヌ</text><text x="0" y="64" class="m" opacity="0.62">W</text><text x="0" y="80" class="m" opacity="0.53">K</text><text x="0" y="96" class="m" opacity="0.43">R</text><text x="0" y="112" class="m" opacity="0.34">1</text><text x="0" y="128" class="m" opacity="0.24">#</text><animateTransform attributeName="transform" type="translate" from="817.5,-135" to="817.5,270" dur="3.72s" begin="2.17s" repeatCount="indefinite" additive="sum"/></g><g transform="translate(832.5,-149)"><text x="0" y="0" class="m" opacity="1.00">ナ</text><text x="0" y="16" class="m" opacity="0.91">ツ</text><text x="0" y="32" class="m" opacity="0.81">V</text><text x="0" y="48" class="m" opacity="0.72">ヌ</text><text x="0" y="64" class="m" opacity="0.62">#</text><text x="0" y="80" class="m" opacity="0.53">$</text><text x="0" y="96" class="m" opacity="0.43">ノ</text><text x="0" y="112" class="m" opacity="0.34">H</text><text x="0" y="128" class="m" opacity="0.24">U</text><animateTransform attributeName="transform" type="translate" from="832.5,-149" to="832.5,270" dur="5.14s" begin="2.3s" repeatCount="indefinite" additive="sum"/></g><g transform="translate(847.5,-26)"><text x="0" y="0" class="m" opacity="1.00">ス</text><text x="0" y="16" class="m" opacity="0.88">タ</text><text x="0" y="32" class="m" opacity="0.76">A</text><text x="0" y="48" class="m" opacity="0.64">E</text><text x="0" y="64" class="m" opacity="0.51">1</text><text x="0" y="80" class="m" opacity="0.39">ヌ</text><text x="0" y="96" class="m" opacity="0.27">ト</text><animateTransform attributeName="transform" type="translate" from="847.5,-26" to="847.5,270" dur="4.7s" begin="3.2s" repeatCount="indefinite" additive="sum"/></g><g transform="translate(862.5,-108)"><text x="0" y="0" class="m" opacity="1.00">$</text><text x="0" y="16" class="m" opacity="0.92">C</text><text x="0" y="32" class="m" opacity="0.85">キ</text><text x="0" y="48" class="m" opacity="0.77">M</text><text x="0" y="64" class="m" opacity="0.69">H</text><text x="0" y="80" class="m" opacity="0.61">1</text><text x="0" y="96" class="m" opacity="0.54">ネ</text><text x="0" y="112" class="m" opacity="0.46">K</text><text x="0" y="128" class="m" opacity="0.38">J</text><text x="0" y="144" class="m" opacity="0.30">P</text><text x="0" y="160" class="m" opacity="0.23">1</text><animateTransform attributeName="transform" type="translate" from="862.5,-108" to="862.5,270" dur="4.51s" begin="3.19s" repeatCount="indefinite" additive="sum"/></g><g transform="translate(877.5,-32)"><text x="0" y="0" class="m" opacity="1.00">コ</text><text x="0" y="16" class="m" opacity="0.93">イ</text><text x="0" y="32" class="m" opacity="0.86">ソ</text><text x="0" y="48" class="m" opacity="0.79">ヌ</text><text x="0" y="64" class="m" opacity="0.72">テ</text><text x="0" y="80" class="m" opacity="0.65">シ</text><text x="0" y="96" class="m" opacity="0.57">C</text><text x="0" y="112" class="m" opacity="0.50">テ</text><text x="0" y="128" class="m" opacity="0.43">ト</text><text x="0" y="144" class="m" opacity="0.36">V</text><text x="0" y="160" class="m" opacity="0.29">ヌ</text><text x="0" y="176" class="m" opacity="0.22">タ</text><animateTransform attributeName="transform" type="translate" from="877.5,-32" to="877.5,270" dur="2.75s" begin="1.71s" repeatCount="indefinite" additive="sum"/></g><g transform="translate(892.5,-130)"><text x="0" y="0" class="m" opacity="1.00">D</text><text x="0" y="16" class="m" opacity="0.89">1</text><text x="0" y="32" class="m" opacity="0.79">U</text><text x="0" y="48" class="m" opacity="0.68">H</text><text x="0" y="64" class="m" opacity="0.57">イ</text><text x="0" y="80" class="m" opacity="0.47">ナ</text><text x="0" y="96" class="m" opacity="0.36">ス</text><text x="0" y="112" class="m" opacity="0.26">O</text><animateTransform attributeName="transform" type="translate" from="892.5,-130" to="892.5,270" dur="4.76s" begin="3.33s" repeatCount="indefinite" additive="sum"/></g></svg>